<svg width="1280" height="960" viewBox="0 0 1280 960" fill="none" xmlns="http://www.w3.org/2000/svg">
  <rect width="1280" height="960" rx="48" fill="#EAF2FF"/>
  <rect x="88" y="80" width="1104" height="800" rx="36" fill="#FDFBF7"/>
  <rect x="152" y="144" width="472" height="260" rx="28" fill="#D9E7FF"/>
  <rect x="656" y="144" width="472" height="372" rx="28" fill="#14213D"/>
  <rect x="152" y="444" width="472" height="308" rx="28" fill="#FFFFFF" stroke="#D6E2F4" stroke-width="8"/>
  <path d="M748 248C748 214.863 774.863 188 808 188H976C1009.14 188 1036 214.863 1036 248V420C1036 453.137 1009.14 480 976 480H808C774.863 480 748 453.137 748 420V248Z" fill="#F6B24B"/>
  <path d="M210 316C286 226.667 352.667 210.667 410 268C467.333 325.333 512 331.333 544 286L624 404H152L210 316Z" fill="#6B96E8"/>
  <circle cx="1008" cy="240" r="48" fill="#FDFBF7"/>
  <rect x="736" y="576" width="344" height="176" rx="26" fill="#FDFBF7"/>
  <path d="M192 640H580" stroke="#14213D" stroke-width="18" stroke-linecap="round"/>
  <path d="M192 684H452" stroke="#8BA4C7" stroke-width="18" stroke-linecap="round"/>
  <path d="M192 728H396" stroke="#8BA4C7" stroke-width="18" stroke-linecap="round"/>
  <rect x="778" y="620" width="122" height="20" rx="10" fill="#D9E7FF"/>
  <rect x="778" y="662" width="224" height="20" rx="10" fill="#D9E7FF"/>
  <rect x="1006" y="620" width="32" height="62" rx="16" fill="#F6B24B"/>
</svg>
